<svg xmlns="http://www.w3.org/2000/svg" viewBox="0 0 3440 1440" width="3440" height="1440" preserveAspectRatio="xMidYMid slice">
<defs>
<linearGradient id="base" x1="0" y1="0" x2="0" y2="1"><stop offset="0" stop-color="#0a1416"/><stop offset=".6" stop-color="#0c1719"/><stop offset="1" stop-color="#071012"/></linearGradient>
<radialGradient id="teal"><stop offset="0" stop-color="#94e2d5" stop-opacity=".36"/><stop offset=".45" stop-color="#94e2d5" stop-opacity=".12"/><stop offset="1" stop-color="#94e2d5" stop-opacity="0"/></radialGradient>
<radialGradient id="green"><stop offset="0" stop-color="#a6e3a1" stop-opacity=".22"/><stop offset=".45" stop-color="#a6e3a1" stop-opacity=".075"/><stop offset="1" stop-color="#a6e3a1" stop-opacity="0"/></radialGradient>
<radialGradient id="sapphire"><stop offset="0" stop-color="#74c7ec" stop-opacity=".26"/><stop offset=".45" stop-color="#74c7ec" stop-opacity=".09"/><stop offset="1" stop-color="#74c7ec" stop-opacity="0"/></radialGradient>
<pattern id="dots" width="36" height="36" patternUnits="userSpaceOnUse"><circle cx="18" cy="18" r="1.4" fill="#94e2d5" fill-opacity=".16"/></pattern>
<radialGradient id="fade" cx=".22" cy=".3" r=".5"><stop offset="0" stop-color="#fff"/><stop offset="1" stop-color="#000"/></radialGradient>
<mask id="dotmask"><rect width="100%" height="100%" fill="url(#fade)"/></mask>
<filter id="grain" x="0" y="0" width="100%" height="100%"><feTurbulence type="fractalNoise" baseFrequency=".85" numOctaves="2" stitchTiles="stitch"/><feColorMatrix type="saturate" values="0"/><feComponentTransfer><feFuncA type="table" tableValues="0 .07"/></feComponentTransfer></filter>
</defs>
<rect width="3440" height="1440" fill="url(#base)"/>
<ellipse cx="960" cy="560" rx="900" ry="640" fill="url(#teal)"/>
<ellipse cx="200" cy="1300" rx="900" ry="600" fill="url(#green)"/>
<ellipse cx="3000" cy="220" rx="1000" ry="700" fill="url(#sapphire)"/>
<rect width="3440" height="1440" fill="url(#dots)" mask="url(#dotmask)"/>
<path d="M0 1040 C600 900 1200 1180 1800 1060 S3000 900 3440 1020 V1440 H0 Z" fill="#94e2d5" fill-opacity=".07"/>
<path d="M0 1140 C700 1020 1300 1300 2000 1180 S3000 1060 3440 1160 V1440 H0 Z" fill="#a6e3a1" fill-opacity=".06"/>
<path d="M0 1260 C500 1180 1400 1380 2100 1290 S3000 1220 3440 1300 V1440 H0 Z" fill="#74c7ec" fill-opacity=".08"/>
<g fill="none" stroke-linecap="round">
<path d="M0 1040 C600 900 1200 1180 1800 1060 S3000 900 3440 1020" stroke="#94e2d5" stroke-opacity=".28" stroke-width="2.4"/>
<path d="M0 1140 C700 1020 1300 1300 2000 1180 S3000 1060 3440 1160" stroke="#a6e3a1" stroke-opacity=".22" stroke-width="2"/>
<path d="M0 1260 C500 1180 1400 1380 2100 1290 S3000 1220 3440 1300" stroke="#74c7ec" stroke-opacity=".26" stroke-width="2.4"/>
</g>
<g transform="translate(674 250) scale(1.1)" stroke="#94e2d5" stroke-opacity=".4" stroke-width="3" stroke-linejoin="round">
<g id="half">
<path d="M30 137.8 V96 Q30 20 100 11 L260 128 V285 Z" fill="#94e2d5" fill-opacity=".12"/>
<path d="M30 137.8 L124 198 V468 H30 Z" fill="#94e2d5" fill-opacity=".04"/>
<path d="M0 468 V95 Q0 2 100 11 Q30 20 30 96 V468 Z" fill="#071012" fill-opacity=".5"/>
<path d="M30 137.8 L124 198 V242 L30 181.8 Z" fill="#071012" fill-opacity=".3" stroke="none"/>
<path d="M152 226 L260 295.1 V331.1 L152 262 Z" fill="#94e2d5" fill-opacity=".3" stroke="none"/>
<path d="M152 262 L260 331.1 V344.1 L152 275 Z" fill="#94e2d5" fill-opacity=".13" stroke="none"/>
<path d="M158 284.8 L260 350.1 V386.1 L158 320.8 Z" fill="#a6e3a1" fill-opacity=".22" stroke="none"/>
<path d="M158 320.8 L260 386.1 V399.1 L158 333.8 Z" fill="#a6e3a1" fill-opacity=".1" stroke="none"/>
<path d="M164 343.7 L260 405.1 V441.1 L164 379.7 Z" fill="#74c7ec" fill-opacity=".16" stroke="none"/>
<path d="M164 379.7 L260 441.1 V454.1 L164 392.7 Z" fill="#74c7ec" fill-opacity=".07" stroke="none"/>
</g>
<use href="#half" transform="translate(520 0) scale(-1 1)"/>
</g>
<rect width="3440" height="1440" filter="url(#grain)"/>
</svg>
